<?xml version="1.0" encoding="UTF-8"?>
<svg xmlns="http://www.w3.org/2000/svg" width="1200" height="200" viewBox="0 0 1200 200" role="img" aria-labelledby="title desc">
  <title id="title">Estrutura</title>
  <desc id="desc">Sessões em .sky/sessions, agentes em .agents, showcase Astro, registry público e extensão proprietária sky-cloud-design.</desc>
  <defs>
    <linearGradient id="bg" x1="0" y1="0" x2="1" y2="0">
      <stop offset="0%" stop-color="#0B1420"/>
      <stop offset="100%" stop-color="#0E1C28"/>
    </linearGradient>
  </defs>
  <rect width="1200" height="200" rx="20" fill="url(#bg)"/>
  <rect x="1" y="1" width="1198" height="198" rx="19" fill="none" stroke="#2A4A6E"/>
  <rect x="40" y="52" width="6" height="96" rx="3" fill="#4A7FA8"/>

  <text x="68" y="58" fill="#7A90A8" font-family="ui-monospace, SFMono-Regular, Menlo, Consolas, monospace" font-size="18" letter-spacing="2">REPO MAP</text>
  <text x="68" y="102" fill="#F7F9FC" font-family="-apple-system, BlinkMacSystemFont, Segoe UI, sans-serif" font-size="40" font-weight="700">Estrutura</text>
  <text x="68" y="148" fill="#A8B8C8" font-family="-apple-system, BlinkMacSystemFont, Segoe UI, sans-serif" font-size="18">Sessão local · agentes · site visual.</text>

  <g transform="translate(560 28)" font-family="ui-monospace, SFMono-Regular, Menlo, Consolas, monospace" font-size="15">
    <text x="0" y="18" fill="#7A90A8" font-size="14" letter-spacing="1.5">NÚCLEO</text>

    <rect x="0" y="34" width="118" height="32" rx="8" fill="#122338" stroke="#2A4A6E"/>
    <text x="59" y="55" fill="#A8B8C8" text-anchor="middle">.sky/</text>
    <rect x="128" y="34" width="118" height="32" rx="8" fill="#122338" stroke="#2A4A6E"/>
    <text x="187" y="55" fill="#A8B8C8" text-anchor="middle">.agents/</text>
    <rect x="256" y="34" width="138" height="32" rx="8" fill="#122338" stroke="#2A4A6E"/>
    <text x="325" y="55" fill="#A8B8C8" text-anchor="middle">showcase</text>
    <rect x="404" y="34" width="98" height="32" rx="8" fill="#122338" stroke="#2A4A6E"/>
    <text x="453" y="55" fill="#A8B8C8" text-anchor="middle">docs/</text>

    <text x="0" y="98" fill="#7A90A8" font-size="14" letter-spacing="1.5">EXTENSÃO</text>
    <rect x="0" y="112" width="530" height="44" rx="10" fill="#122338" stroke="#4A7FA8"/>
    <circle cx="28" cy="134" r="5" fill="#7EB8D4"/>
    <text x="48" y="140" fill="#F7F9FC" font-size="16">sky-cloud-design · proprietário · core MIT</text>
  </g>
</svg>
